<?xml version="1.0" encoding="utf-8"?>
<!-- Generator: Adobe Illustrator 17.1.0, SVG Export Plug-In . SVG Version: 6.00 Build 0)  -->
<!DOCTYPE svg PUBLIC "-//W3C//DTD SVG 1.1//EN" "http://www.w3.org/Graphics/SVG/1.1/DTD/svg11.dtd">
<svg version="1.1" id="Calque_1" xmlns="http://www.w3.org/2000/svg" xmlns:xlink="http://www.w3.org/1999/xlink" x="0px" y="0px"
	 viewBox="0 0 523 50" enable-background="new 0 0 523 50" xml:space="preserve">
<g>
	<defs>
		<rect id="SVGID_1_" width="523" height="50"/>
	</defs>
	<clipPath id="SVGID_2_">
		<use xlink:href="#SVGID_1_"  overflow="visible"/>
	</clipPath>
	<g id="Grille_de_répétition_6" clip-path="url(#SVGID_2_)">
		<g transform="translate(-507 -824)">
			<path id="Tracé_8255" fill="#C10404" d="M507,873.9l13.9-49.9H542l-13.4,49.9H507z"/>
		</g>
		<g transform="translate(-463 -824)">
			<path id="Tracé_8255-2" fill="#C10404" d="M507,873.9l13.9-49.9H542l-13.4,49.9H507z"/>
		</g>
		<g transform="translate(-419 -824)">
			<path id="Tracé_8255-3" fill="#C10404" d="M507,873.9l13.9-49.9H542l-13.4,49.9H507z"/>
		</g>
		<g transform="translate(-375 -824)">
			<path id="Tracé_8255-4" fill="#C10404" d="M507,873.9l13.9-49.9H542l-13.4,49.9H507z"/>
		</g>
		<g transform="translate(-331 -824)">
			<path id="Tracé_8255-5" fill="#C10404" d="M507,873.9l13.9-49.9H542l-13.4,49.9H507z"/>
		</g>
		<g transform="translate(-287 -824)">
			<path id="Tracé_8255-6" fill="#C10404" d="M507,873.9l13.9-49.9H542l-13.4,49.9H507z"/>
		</g>
		<g transform="translate(-243 -824)">
			<path id="Tracé_8255-7" fill="#C10404" d="M507,873.9l13.9-49.9H542l-13.4,49.9H507z"/>
		</g>
		<g transform="translate(-199 -824)">
			<path id="Tracé_8255-8" fill="#C10404" d="M507,873.9l13.9-49.9H542l-13.4,49.9H507z"/>
		</g>
		<g transform="translate(-155 -824)">
			<path id="Tracé_8255-9" fill="#C10404" d="M507,873.9l13.9-49.9H542l-13.4,49.9H507z"/>
		</g>
		<g transform="translate(-111 -824)">
			<path id="Tracé_8255-10" fill="#C10404" d="M507,873.9l13.9-49.9H542l-13.4,49.9H507z"/>
		</g>
		<g transform="translate(-67 -824)">
			<path id="Tracé_8255-11" fill="#C10404" d="M507,873.9l13.9-49.9H542l-13.4,49.9H507z"/>
		</g>
		<g transform="translate(-23 -824)">
			<path id="Tracé_8255-12" fill="#C10404" d="M507,873.9l13.9-49.9H542l-13.4,49.9H507z"/>
		</g>
	</g>
</g>
</svg>
