<svg xmlns="http://www.w3.org/2000/svg" viewBox="0 0 750.289 440.695">
  <g data-name="Groupe 1838">
    <path data-name="Tracé 105" d="M45.464 22.885A22.482 22.482 0 1 0 22.982 45.27a22.453 22.453 0 0 0 22.482-22.385zm-33.385 0a10.9 10.9 0 1 1 10.9 10.807 10.872 10.872 0 0 1-10.9-10.807z" fill="none" stroke="#000"/>
    <g data-name="Groupe 140" transform="translate(23.227 75.097)">
      <path data-name="Tracé 33" d="M18.579 29.705a5.789 5.789 0 1 0-5.789 5.789 5.806 5.806 0 0 0 5.789-5.789z"/>
      <path data-name="Tracé 34" d="M52.397 72.594a5.866 5.866 0 0 0 .965-3.184 5.784 5.784 0 1 0-8.973 4.824 5.723 5.723 0 0 0 8.008-1.64z"/>
      <path data-name="Tracé 35" d="M18.924 54.502a5.769 5.769 0 0 0 11.048-2.363 5.923 5.923 0 0 0-.482-2.364 5.759 5.759 0 0 0-7.623-2.948 5.828 5.828 0 0 0-2.943 7.675z"/>
      <ellipse data-name="Ellipse 3" cx="5.789" cy="5.789" rx="5.789" ry="5.789" transform="rotate(90 5.7895 5.7895)"/>
      <path data-name="Tracé 36" d="M87.909 75.874a5.765 5.765 0 0 0-5.789-5.789 5.765 5.765 0 0 0-5.789 5.789 5.765 5.765 0 0 0 5.789 5.789 5.765 5.765 0 0 0 5.789-5.789z"/>
    </g>
    <path data-name="Tracé 106" d="M705.326 384.88a22.482 22.482 0 1 0 22.482-22.385 22.453 22.453 0 0 0-22.482 22.385zm33.337 0a10.9 10.9 0 1 1-10.855-10.807 10.872 10.872 0 0 1 10.854 10.807z"/>
    <path data-name="Tracé 107" d="M23.834 219.209a2.9 2.9 0 0 0-.844 2.05 2.946 2.946 0 0 0 .844 2.05 2.9 2.9 0 0 0 4.1 0l6.03-6.03 6.03 6.03a2.9 2.9 0 0 0 4.1-4.1l-6.03-6.03 6.03-6.03a2.9 2.9 0 0 0-4.1-4.1l-6.03 6.03-6.03-6.03a2.895 2.895 0 0 0-4.945 2.05 2.946 2.946 0 0 0 .844 2.05l6.03 6.03z" fill="none" stroke="#022839"/>
    <path data-name="Tracé 108" d="M222.834 99.209a2.9 2.9 0 0 0-.844 2.05 2.946 2.946 0 0 0 .844 2.05 2.9 2.9 0 0 0 4.1 0l6.03-6.03 6.03 6.03a2.9 2.9 0 0 0 4.1-4.1l-6.03-6.03 6.03-6.03a2.9 2.9 0 0 0-4.1-4.1l-6.03 6.03-6.03-6.03a2.895 2.895 0 0 0-4.945 2.05 2.946 2.946 0 0 0 .844 2.05l6.03 6.03z"/>
    <path data-name="Tracé 109" d="M188.456 177.839l-10.9 10.9a2.821 2.821 0 0 1-3.992 0l-10.9-10.9a2.823 2.823 0 1 1 3.992-3.992l6.082 6.082v-7.28a16.593 16.593 0 0 0-16.643-16.509 2.818 2.818 0 0 1 0-5.636 22.245 22.245 0 0 1 22.282 22.146v7.3l6.082-6.082a2.827 2.827 0 0 1 2-.822 2.868 2.868 0 0 1 2 .822 2.792 2.792 0 0 1-.003 3.971z"/>
    <path data-name="Tracé 110" d="M189.834 111.209a2.9 2.9 0 0 0-.844 2.05 2.946 2.946 0 0 0 .844 2.05 2.9 2.9 0 0 0 4.1 0l6.03-6.03 6.03 6.03a2.9 2.9 0 0 0 4.1-4.1l-6.03-6.03 6.03-6.03a2.9 2.9 0 0 0-4.1-4.1l-6.03 6.03-6.03-6.03a2.895 2.895 0 0 0-4.945 2.05 2.946 2.946 0 0 0 .844 2.05l6.03 6.03z" fill="none" stroke="#022839"/>
    <path data-name="Tracé 111" d="M677.916 413.697a1.793 1.793 0 0 0-.521 1.266 1.819 1.819 0 0 0 .521 1.266 1.788 1.788 0 0 0 2.531 0l3.722-3.722 3.722 3.722a1.79 1.79 0 0 0 2.531-2.531l-3.722-3.722 3.722-3.722a1.79 1.79 0 0 0-2.531-2.531l-3.722 3.722-3.722-3.722a1.787 1.787 0 0 0-3.052 1.266 1.818 1.818 0 0 0 .521 1.266l3.722 3.722z" fill="none" stroke="#022839"/>
    <g data-name="sedan-car-model (1)">
      <g data-name="Groupe 1806">
        <path data-name="Tracé 8257" d="M151.474 93.917a2.583 2.583 0 0 0-2.583 2.583 2.508 2.508 0 0 0 .023.324 2.58 2.58 0 0 0 5.131-.1c.006-.072.011-.146.011-.22a2.582 2.582 0 0 0-2.582-2.587zm-1.29 1.609l.526.527a.892.892 0 0 0-.094.227h-.742a1.6 1.6 0 0 1 .31-.754zm-.313 1.2h.748a.866.866 0 0 0 .094.224l-.528.527a1.616 1.616 0 0 1-.317-.75zm1.382 1.377a1.609 1.609 0 0 1-.749-.311l.525-.525a.889.889 0 0 0 .224.091zm0-2.463a.9.9 0 0 0-.228.1l-.526-.526a1.6 1.6 0 0 1 .754-.312zm.447-.744a1.607 1.607 0 0 1 .754.312l-.526.526a.9.9 0 0 0-.228-.1v-.743zm0 3.206v-.741a.882.882 0 0 0 .224-.091l.525.525a1.609 1.609 0 0 1-.752.308zm1.069-.622l-.529-.53a.873.873 0 0 0 .1-.223h.742a1.611 1.611 0 0 1-.315.754zm-.432-1.2a.9.9 0 0 0-.094-.227l.527-.527a1.612 1.612 0 0 1 .309.754h-.745z"/>
        <path data-name="Tracé 8258" d="M172.919 93.917a2.583 2.583 0 0 0-2.583 2.583 2.509 2.509 0 0 0 .023.324 2.58 2.58 0 0 0 5.131-.1c.006-.072.011-.146.011-.22a2.582 2.582 0 0 0-2.582-2.587zm-1.293 1.609l.526.527a.892.892 0 0 0-.094.227h-.739a1.6 1.6 0 0 1 .306-.754zm-.313 1.2h.748a.866.866 0 0 0 .094.224l-.527.527a1.6 1.6 0 0 1-.316-.75zm1.382 1.377a1.609 1.609 0 0 1-.749-.311l.525-.525a.889.889 0 0 0 .224.091zm0-2.463a.9.9 0 0 0-.228.1l-.526-.526a1.6 1.6 0 0 1 .754-.312zm.447-.744a1.607 1.607 0 0 1 .754.312l-.526.526a.873.873 0 0 0-.228-.1zm0 3.206v-.741a.882.882 0 0 0 .224-.091l.525.525a1.611 1.611 0 0 1-.749.308zm1.069-.622l-.529-.529a.863.863 0 0 0 .1-.224h.737a1.608 1.608 0 0 1-.308.754zm-.432-1.2a.892.892 0 0 0-.094-.227l.527-.527a1.612 1.612 0 0 1 .31.754h-.742z"/>
        <path data-name="Tracé 8259" d="M179.12 92.581V90.67a.622.622 0 0 0-.527-.615 25.442 25.442 0 0 1-2.6-.508c-.832-.257-4.047-1.618-5.16-1.873s-6.134-1.62-10.943.047c-.814.282-4.474 2.032-6.627 2.942-.635.012-6.909 1.32-7.243 2.216a14.5 14.5 0 0 0-.5 1.559 3.676 3.676 0 0 0 .466 2.075 7.489 7.489 0 0 0 2.447.57c-.012-.065-.025-.128-.034-.194a2.974 2.974 0 0 1-.027-.389 3.1 3.1 0 1 1 6.2 0c0 .088-.006.175-.012.261a3.018 3.018 0 0 1-.1.558h.01l15.395-.31c-.007-.04-.016-.079-.021-.12a2.962 2.962 0 0 1-.027-.389 3.1 3.1 0 0 1 6.2 0v.018l.066-.006 2.632-.5a2.241 2.241 0 0 0 1.008-2.013 1.776 1.776 0 0 0-.603-1.418zm-15.272-1.812l-5.749.176c.106-.861-.4-1.055-.4-1.055 2.286-2.075 6.892-2.145 6.892-2.145zm6.452-.263l-5.239.176.475-2.936a12.411 12.411 0 0 1 4.255.562l.774 1.248zm2.954-.018h-1.46l-1.459-2c1.095.436 1.971.865 2.493 1.137a.814.814 0 0 1 .426.863z"/>
      </g>
    </g>
    <g>
      <g data-name="Groupe 1807">
        <path data-name="Tracé 8260" d="M677.016 432.094c.048-.58.1-1.236.207-1.8.073-.4.234-.923.777-.923a1.587 1.587 0 0 1 .163.011c.034 0 .067.008.122.009a.2.2 0 0 0 .041-.082 5.653 5.653 0 0 1 1.688-1.721c.212-.171.465-.376.573-.482a1.089 1.089 0 0 1 .157-.842.669.669 0 0 1 .543-.237c.042 0 .087 0 .187.011a8.4 8.4 0 0 0 1.2-.2 43.6 43.6 0 0 1 8.382-.961c6.026-.119 10.762 4.229 10.957 4.413l.14.13a17.094 17.094 0 0 0 3.418.875c3.388.667 4.035 1.747 4.157 2.164a2.037 2.037 0 0 1 .772 1.244 1.545 1.545 0 0 0 .182.636l.058.075v3.189l-.007.058c-.184.847-1.061 1.295-2.538 1.295a6.14 6.14 0 0 1-.811-.048l-.518-.011c.032-.089.062-.179.087-.272s.047-.179.064-.271a3.553 3.553 0 1 0-7.043-.668 3.58 3.58 0 0 0 .042.52c.014.092.029.184.05.274s.044.185.072.275c-4.438-.1-10.086-.221-14.459-.331.019-.09.032-.181.044-.272s.019-.181.024-.273c0-.064.01-.127.01-.192a3.553 3.553 0 0 0-7.1-.081v.081c0 .069.006.136.011.2.005.1.015.194.028.289a2.388 2.388 0 0 1-1.827-1.29 4.176 4.176 0 0 1-.082-3.215 6.1 6.1 0 0 0 .229-1.577z"/>
        <path data-name="Tracé 8261" d="M706.291 438.885a3.005 3.005 0 0 1-5.562-.116c-.034-.09-.065-.182-.091-.276s-.046-.182-.063-.275a3.054 3.054 0 0 1-.05-.531 3.007 3.007 0 1 1 5.941.656 2.678 2.678 0 0 1-.073.27c-.033.094-.064.183-.102.272z"/>
        <path data-name="Tracé 8262" d="M685.124 438.411a3 3 0 0 1-5.872-.18c-.016-.091-.029-.182-.038-.276s-.013-.177-.013-.268v-.007a3.00750204 3.00750204 0 0 1 6.015.007c0 .06-.006.119-.009.179-.005.092-.014.183-.028.273s-.035.183-.055.272z"/>
      </g>
    </g>
    <g data-name="car (1)">
      <path data-name="Tracé 8276" d="M662.066 388.847h27.917a3.8585 3.8585 0 0 0 0-7.717h-24.649c-.014 0-.029-.012-.043-.013a2.99 2.99 0 0 1-2.976 2.646h-1.055v-6.628h1.055a3.03 3.03 0 0 1 2.976 2.692c.014 0 .028.032.043.032h24.649a5.13 5.13 0 1 1 0 10.259h-27.917a3.869 3.869 0 0 0-3.893 3.87v11.076a3.928 3.928 0 0 0 3.893 3.938h3.461v1.271h-3.461a5.2 5.2 0 0 1-5.164-5.209v-11.077a5.142 5.142 0 0 1 5.164-5.141z"/>
      <path data-name="Tracé 8277" d="M656.084 379.586a.636.636 0 0 1 0-1.271h2.088v-.51a.638.638 0 0 1 .6-.67h1.214v6.628h-1.214a.618.618 0 0 1-.6-.648v-.533h-2.088a.636.636 0 0 1 0-1.271h2.088v-1.725z"/>
    </g>
  </g>
</svg>
